<svg width="41" height="40" viewBox="0 0 41 40" fill="none" xmlns="http://www.w3.org/2000/svg">
<path d="M14.1067 0L27.2209 2.68115C27.2316 2.68115 27.2423 2.70131 27.2316 2.71139L13.3764 12.8312H13.3656L0.0151893 10.2005C0.00444885 10.2005 -0.00629163 10.1803 0.00444886 10.1702L14.0852 0.0100796C14.096 3.83001e-08 14.096 0 14.1067 0Z" fill="#3741E7"/>
<path d="M27.188 2.70144L13.365 12.8314L13.4294 19.121C13.4294 19.1714 13.4939 19.2016 13.5368 19.1714L27.2632 9.0717L27.2202 2.71152C27.2202 2.70144 27.1987 2.69136 27.188 2.70144Z" fill="#1926A3"/>
<path d="M13.4307 19.2113L27.1678 9.14182C27.2322 9.09143 27.2537 9.06119 27.2644 9.07127L33.7409 10.18C33.9557 10.2304 33.7946 10.3917 33.7624 10.4219L19.9394 20.8038C19.9287 20.8139 19.9072 20.8139 19.8964 20.8139L13.5381 19.3121C13.4844 19.2919 13.4736 19.2415 13.4307 19.2113Z" fill="#3741E7"/>
<path d="M19.8857 20.8143V27.1745C19.8857 27.2047 19.918 27.2148 19.9394 27.2047L33.8269 16.8833C33.8376 16.8732 33.8376 16.8631 33.8376 16.8531L33.8484 10.2611C33.8484 10.2308 33.8162 10.2208 33.7947 10.2308L19.8965 20.7942C19.8965 20.7942 19.8857 20.8042 19.8857 20.8143Z" fill="#1926A3"/>
<path d="M19.9615 27.1847L26.7065 28.5152C26.7173 28.5958 26.728 28.5152 26.7388 28.5051L40.551 18.2543C40.5725 18.2341 40.5618 18.2039 40.5403 18.1938L33.8704 16.8633C33.8597 16.8633 33.849 16.8633 33.8382 16.8734L19.9508 27.2049C19.9293 27.225 19.9293 27.2553 19.9615 27.1847Z" fill="#EBEBEB"/>
<path d="M26.7061 28.5146L40.4754 18.3141C40.5291 18.2738 40.6042 18.3141 40.6042 18.3746V24.7851L26.7061 35.036V28.5146Z" fill="#CBCBCA"/>
<path d="M19.9601 27.1851L13.5051 32.124C13.4944 32.1341 13.4944 32.1442 13.5158 32.1543L19.9387 33.4948L19.9601 27.1851Z" fill="#EBEBEB"/>
<path d="M20.0038 33.4946L26.7058 35.0368L19.9823 39.9959C19.9716 40.006 19.9608 39.9959 19.9608 39.9858L20.0038 33.4946Z" fill="#CBCBCA"/>
<path d="M13.4736 25.6826L19.9609 27.1945L13.5166 32.1234C13.4951 32.1335 13.4736 32.1234 13.4736 32.1033V25.6826Z" fill="#1926A3"/>
<path d="M13.4189 19.262L6.7168 17.8105L6.7705 24.211L13.4726 25.6826L13.4189 19.262Z" fill="#3741E7"/>
</svg>
